<svg width="52" height="53" viewBox="0 0 52 53" fill="none" xmlns="http://www.w3.org/2000/svg">
<path d="M0.478516 0V53H51.7503V0H0.478516ZM28.3804 41.3353C28.3804 46.4933 25.4506 48.8475 21.1818 48.8475C17.3249 48.8475 15.0933 46.7891 13.9488 44.2929L17.8743 41.844C18.6296 43.2281 19.3163 44.3993 20.9758 44.3993C22.5551 44.3993 23.5622 43.7605 23.5622 41.2643V24.335H28.3804V41.3353ZM39.7792 48.8475C35.3044 48.8475 32.4089 46.6471 31.0012 43.7605L34.9267 41.4181C35.9567 43.1571 37.3072 44.4467 39.6762 44.4467C41.6676 44.4467 42.9494 43.4174 42.9494 41.9859C42.9494 40.2824 41.6447 39.679 39.4359 38.6734L38.2342 38.1411C34.7551 36.615 32.4547 34.6866 32.4547 30.6288C32.4547 26.8904 35.2128 24.0511 39.5046 24.0511C42.5717 24.0511 44.7691 25.1513 46.3484 28.0379L42.5946 30.5223C41.7706 28.9962 40.8779 28.3929 39.4931 28.3929C38.0854 28.3929 37.1927 29.3156 37.1927 30.5223C37.1927 32.0129 38.0854 32.6163 40.1569 33.5509L41.3586 34.0833C45.4557 35.8933 47.7561 37.7507 47.7561 41.915C47.7561 46.3868 44.3456 48.8475 39.7792 48.8475Z" fill="#F9A826"/>
</svg>
